<svg width="64" height="64" viewBox="0 0 64 64" fill="none" xmlns="http://www.w3.org/2000/svg">
  <rect width="64" height="64" rx="18" fill="#E60023"/>
  <path d="M34.107 18C25.957 18 20 23.671 20 31.639C20 36.727 22.865 39.604 24.576 39.604C25.355 39.604 25.8 37.434 25.8 36.829C25.8 36.112 23.979 34.596 23.979 31.349C23.979 25.149 28.693 20.774 34.672 20.774C39.831 20.774 43.644 23.722 43.644 29.04C43.644 33.004 42.047 40.445 36.902 40.445C35.034 40.445 33.532 39.06 33.532 37.216C33.532 34.88 35.205 32.619 35.205 30.209C35.205 24.209 26.395 25.294 26.395 34.138C26.395 35.951 26.615 37.961 27.494 39.574C26.216 45.093 23.54 53.334 23.54 58.995C23.54 59.476 23.617 59.943 23.675 60.424C24.037 60.537 24.099 60.478 24.295 60.199C27.41 56.048 28.496 50.658 29.436 45.641C30.61 47.896 33.62 49.11 36.01 49.11C43.913 49.11 47.441 41.404 47.441 34.478C47.441 25.964 40.086 18 34.107 18Z" fill="white"/>
</svg>
